<?xml version="1.0" standalone="no"?><!DOCTYPE svg PUBLIC "-//W3C//DTD SVG 1.1//EN" "http://www.w3.org/Graphics/SVG/1.1/DTD/svg11.dtd"><svg t="1612421541733" class="icon" viewBox="0 0 1024 1024" version="1.1" xmlns="http://www.w3.org/2000/svg" p-id="2155" width="200" height="200" xmlns:xlink="http://www.w3.org/1999/xlink"><defs><style type="text/css"></style></defs><path d="M405.506571 647.989207c0.079818 0.082888 0.041956 0.212848 0.121773 0.296759l23.533996 23.531949 5.320169 5.360078 0.019443-0.01842 5.01113 5.013177c6.236028 6.238075 16.35448 6.238075 22.593578 0l248.502747-248.505817c6.236028-6.238075 6.236028-16.353456 0-22.589484l-33.886785-33.888831c-6.239098-6.238075-16.35141-6.238075-22.588461 0L450.939319 580.382437l-96.659457-97.365538c-6.241145-6.238075-16.35448-6.238075-22.593578 0l-33.883715 33.886785c-6.244214 6.242168-6.244214 16.356526 0 22.591531L405.506571 647.989207z" fill="#1fae12" p-id="2156"></path><path d="M953.234283 511.425925c0-242.62897-196.690708-439.319677-439.319677-439.319677S74.594929 268.795932 74.594929 511.425925s196.690708 439.319677 439.319677 439.319677S953.234283 754.054895 953.234283 511.425925zM175.977967 511.425925c0-186.639794 151.301961-337.939709 337.937662-337.939709 186.639794 0 337.939709 151.300938 337.939709 337.939709 0 186.634678-151.299915 337.937662-337.939709 337.937662C327.279928 849.363587 175.977967 698.060603 175.977967 511.425925z" fill="#1fae12" p-id="2157"></path></svg>